# xmcd
#
# Track frame offsets: 
#        150
#        12087
#        23024
#        35374
#        48714
#        60051
#        72660
#        91029
#        101031
#        115282
#        126730
#        141289
#        157594
#        173838
#        188878
#
# Disc length: 2734 seconds
#
# Revision: 0
# Processed by: cddbd v1.5.2PL0 Copyright (c) Steve Scherf et al.
# Submitted via: ExactAudioCopyFreeDBPlugin 1.0
#
DISCID=c40aac0f
DTITLE=Alabama - American Christmas
DYEAR=2017
DGENRE=Christmas
TTITLE0=Ain't Santa Cool
TTITLE1=Go Tell It On The Mountain
TTITLE2=Silent Night
TTITLE3=Why Can't Christmas Day Last All Year Long
TTITLE4=Away In A Manger
TTITLE5=Christmas Joy
TTITLE6=First Christmas Without Daddy
TTITLE7=Winter Wonderland
TTITLE8=Greatest Gift
TTITLE9=Jingle Bells
TTITLE10=Remember Me
TTITLE11=(I Wanna) Rock N Roll Guitar
TTITLE12=Christmas In Dixie
TTITLE13=Sure Could Use Some Christmas Around Here
TTITLE14=Auld Lang Syne
EXTD=
EXTT0=
EXTT1=
EXTT2=
EXTT3=
EXTT4=
EXTT5=
EXTT6=
EXTT7=
EXTT8=
EXTT9=
EXTT10=
EXTT11=
EXTT12=
EXTT13=
EXTT14=
PLAYORDER=
